<svg width="23" height="27" viewBox="0 0 23 27" fill="none" xmlns="http://www.w3.org/2000/svg">
<path d="M6.20665 21.0119C5.19686 19.8644 4.18711 18.6711 3.5445 17.2482C2.90193 15.7335 2.71832 13.9894 3.03963 12.337C3.36093 10.6847 4.09529 9.1241 5.15099 7.79305C5.05921 8.94053 5.4723 10.1339 6.25256 11.006C5.79356 8.80284 6.52796 6.41608 7.99671 4.67194C9.46545 2.9278 11.485 1.78027 13.5964 1C12.5407 2.10157 12.403 3.84572 12.8161 5.31451C13.2292 6.78326 14.1013 8.06844 14.8815 9.39949C15.6618 10.7305 16.3962 12.1075 16.4421 13.6222C16.8552 12.8419 17.3142 12.0616 17.5896 11.1895C17.865 10.3175 18.0027 9.39949 17.7732 8.5274C18.5994 9.53719 19.0584 10.5469 19.2879 11.8321C19.5174 13.1173 19.4715 14.4484 19.3338 15.7335C19.1502 17.1564 18.783 18.6252 18.0027 19.8185C17.0848 21.2414 15.616 22.2511 14.0095 22.8019C11.1637 23.3068 8.36388 22.8938 6.20665 21.0119Z" fill="#F3705A"/>
<path d="M9.69511 22.7102C13.4588 24.179 17.1766 19.7268 15.1111 16.2843C15.1111 16.2384 15.0652 16.2384 15.0652 16.1926C15.2488 18.0744 14.7898 19.4514 13.9178 20.2317C14.3768 19.1301 14.0554 17.8449 13.5047 16.7433C12.9539 15.6877 12.1736 14.7238 11.5769 13.714C10.9802 12.6584 10.5212 11.465 10.7966 10.2716C9.69507 11.0978 8.9148 12.3371 8.5935 13.6681C8.27219 14.9992 8.4558 16.468 9.0525 17.7072C8.36402 17.2023 7.85914 16.3762 7.81323 15.5041C7.07883 16.3762 6.61988 17.5236 6.66575 18.6711C6.66579 20.4612 8.08862 22.0676 9.69511 22.7102Z" fill="#FFD15C"/>
</svg>
