<svg width="24" height="24" viewBox="0 0 24 24" fill="none" xmlns="http://www.w3.org/2000/svg">
<path d="M2.01002 9.07873C2.01002 9.09748 2.01002 9.11248 2.01377 9.13123C2.16002 11.5875 3.17627 14.2537 4.71376 16.605C4.71376 16.6162 4.71752 16.6237 4.72502 16.6312C4.72914 16.6384 4.73439 16.6451 4.73889 16.6522C4.74677 16.6699 4.74939 16.689 4.76027 16.7059C4.77864 16.734 4.80039 16.7587 4.82402 16.7801C6.38176 19.1197 8.44802 21.1264 10.6676 22.248C10.6733 22.251 10.6785 22.254 10.6841 22.2566C11.8875 22.8637 13.0421 23.1675 14.0918 23.1675C14.9693 23.1675 15.7755 22.9537 16.4693 22.5225L19.7768 20.355C19.7805 20.355 19.7843 20.3512 19.7843 20.3512V20.3475C19.788 20.3475 19.7918 20.3437 19.7918 20.3437H19.7955L19.812 20.3329C19.8229 20.3272 19.8341 20.3246 19.8446 20.3175C19.8529 20.3122 19.857 20.3036 19.8649 20.2976L19.8743 20.2912C19.878 20.2912 19.8818 20.2875 19.8855 20.2837L19.9455 20.2462C19.9455 20.2425 19.9493 20.2425 19.953 20.2387C21.4005 19.2337 22.1243 17.3475 21.9893 14.9287V14.9062C21.8468 12.435 20.823 9.73498 19.2743 7.36873C19.2668 7.34623 19.2555 7.32373 19.2405 7.30123C19.2293 7.28248 19.218 7.26748 19.1993 7.25248C19.1955 7.24498 19.188 7.23373 19.1768 7.22623C17.6243 4.88623 15.5618 2.88748 13.3493 1.76623C13.3268 1.75123 13.3043 1.73623 13.278 1.72873C11.133 0.656229 9.12677 0.539979 7.61176 1.42498L7.51052 1.49248L7.48802 1.50373C7.48052 1.50748 7.46927 1.51498 7.46177 1.51873C7.45427 1.52248 7.45051 1.52623 7.44302 1.53748C7.43926 1.53373 7.43926 1.53748 7.43551 1.54123L7.27802 1.64623L7.24427 1.66873L3.95552 3.82498C2.56802 4.84498 1.87801 6.70873 2.00926 9.07873H2.01002ZM2.77502 9.26998C2.77502 9.26998 2.77502 9.2681 2.77502 9.26698L5.37039 7.56448C5.62164 9.77285 6.54039 12.1162 7.86751 14.2196L5.18626 15.9784C3.84377 13.8559 2.94752 11.4787 2.77502 9.26998ZM9.82127 12.9487L8.48927 13.8135C7.23714 11.8301 6.37126 9.62548 6.12376 7.54498V7.54273L8.28376 8.63098V8.63248C8.40752 10.0162 8.94752 11.5275 9.82127 12.9487ZM10.2296 13.5784C11.1934 14.9396 12.3746 16.0387 13.6046 16.71C13.6058 16.7104 13.6065 16.7111 13.6076 16.7115L13.7434 19.095C11.9209 18.0375 10.2334 16.3725 8.90214 14.4412C8.90214 14.4412 8.90176 14.4405 8.90139 14.4401L10.2293 13.578L10.2296 13.5784ZM10.8338 21.4837C8.86126 20.445 7.02002 18.675 5.59877 16.605L8.28189 14.8451C9.69151 16.8952 11.487 18.6682 13.425 19.7854L10.8345 21.4845C10.8345 21.4845 10.8341 21.4845 10.8338 21.4845V21.4837ZM16.0688 21.8925C14.9138 22.605 13.3541 22.59 11.6254 21.8625L14.1866 20.1825C14.4566 20.3137 14.7225 20.43 14.985 20.5234C15.12 20.5759 15.2588 20.6246 15.3938 20.6659C15.5963 20.7296 15.795 20.7859 15.9938 20.8309C16.1925 20.8796 16.3875 20.9134 16.5788 20.9396C16.7175 20.9584 16.8525 20.9734 16.9875 20.9809C17.1225 20.9921 17.2538 20.9959 17.385 20.9959H17.43L16.0688 21.8925ZM17.6775 20.2387C16.7213 20.2987 15.6563 20.0587 14.52 19.5112C14.5196 19.5112 14.5189 19.5109 14.5185 19.5105L14.379 17.067C14.952 17.2879 15.5029 17.4 16.0125 17.4C16.4734 17.4 16.908 17.31 17.2939 17.1266L19.1021 19.8712C18.6784 20.085 18.2025 20.2087 17.6775 20.2387ZM19.7363 19.4625C19.7363 19.4625 19.734 19.464 19.7329 19.4651L17.9235 16.7186C17.9235 16.7186 17.9246 16.7179 17.925 16.7175C18.6075 16.125 18.99 15.1987 19.035 14.0475L21.2475 15.1612C21.3188 17.0925 20.7863 18.6 19.7363 19.4625ZM21.18 14.2875L19.0125 13.1962C18.8925 11.805 18.3563 10.2975 17.4863 8.87998L18.8138 8.02123C20.0663 10.0012 20.9325 12.2062 21.18 14.2875ZM18.4013 7.39498L17.0738 8.25748C16.1138 6.89623 14.9363 5.79748 13.6988 5.12623L13.56 2.73748C15.3825 3.79498 17.07 5.46373 18.4013 7.39498ZM13.785 7.54498L16.8188 12.1462C16.8713 12.2325 16.89 12.3337 16.8713 12.4312C16.8525 12.5287 16.7925 12.615 16.7063 12.6675L14.0363 14.3962C13.9725 14.4375 13.905 14.4562 13.8338 14.4562C13.71 14.4562 13.5938 14.3962 13.5188 14.2875L10.4888 9.68623C10.4325 9.60373 10.4138 9.50248 10.4325 9.40498C10.455 9.30373 10.515 9.22123 10.5975 9.16498L13.2675 7.43623C13.44 7.32373 13.6725 7.37248 13.785 7.54498ZM9.90376 1.58248C10.7775 1.58248 11.7563 1.82998 12.7875 2.32498L12.93 4.76623C11.8388 4.34623 10.83 4.32373 10.0088 4.70623L8.20127 1.96123C8.70377 1.70998 9.27751 1.58248 9.90376 1.58248ZM6.63002 3.55873C6.76502 3.28873 6.92627 3.04498 7.10627 2.82748C7.15127 2.77498 7.19626 2.72248 7.24502 2.66998C7.29377 2.61748 7.33876 2.56873 7.39126 2.52373C7.44751 2.46748 7.51127 2.41123 7.57127 2.36623L9.37877 5.11498C8.70002 5.70373 8.31377 6.62623 8.26502 7.78123C8.21627 8.93623 6.05626 6.66898 6.05626 6.66898C6.05626 6.6686 6.05626 6.66785 6.05626 6.66748C6.01126 5.44498 6.20626 4.39873 6.63002 3.55873ZM4.38376 4.43998L5.83502 3.48748C5.83127 3.49498 5.83126 3.49873 5.82752 3.50623C5.78626 3.60373 5.74501 3.70123 5.71126 3.80248C5.67001 3.90748 5.63626 4.01623 5.60251 4.12873C5.57251 4.21873 5.54626 4.31248 5.52376 4.40998C5.51251 4.44373 5.50501 4.48123 5.49751 4.52248C5.47127 4.61998 5.45251 4.71748 5.43376 4.81873C5.41126 4.93873 5.39251 5.05873 5.37376 5.18248C5.33627 5.42998 5.31376 5.68498 5.30626 5.94748C5.29876 6.08248 5.29877 6.22123 5.29877 6.35998C5.29877 6.47623 5.29877 6.59248 5.30252 6.70873V6.71173L2.74876 8.38685C2.74876 8.38685 2.74876 8.38535 2.74876 8.3846C2.77126 6.5921 3.34501 5.20085 4.38376 4.4396V4.43998Z" fill="#FFDC46"/>
</svg>
