<svg width="35" height="35" viewBox="0 0 35 35" fill="none" xmlns="http://www.w3.org/2000/svg">
<g clip-path="url(#clip0_8879_953)">
<path d="M17.3333 34.5C12.7911 34.5 8.5212 32.7336 5.31378 29.5195C2.10636 26.3055 0.333313 22.0422 0.333313 17.5C0.333313 12.9578 2.09972 8.68789 5.31378 5.48047C8.52784 2.27305 12.7911 0.5 17.3333 0.5C21.8755 0.5 26.1454 2.26641 29.3528 5.48047C32.5603 8.69453 34.3333 12.9578 34.3333 17.5C34.3333 22.0422 32.5669 26.3121 29.3528 29.5195C26.1388 32.727 21.8755 34.5 17.3333 34.5Z" fill="black"/>
<path d="M17.3333 33.8359C26.3554 33.8359 33.6693 26.5221 33.6693 17.5C33.6693 8.47791 26.3554 1.16406 17.3333 1.16406C8.31122 1.16406 0.997375 8.47791 0.997375 17.5C0.997375 26.5221 8.31122 33.8359 17.3333 33.8359Z" fill="url(#paint0_linear_8879_953)"/>
<path d="M17.3333 30.0642C24.2722 30.0642 29.8974 24.439 29.8974 17.5001C29.8974 10.5612 24.2722 4.93604 17.3333 4.93604C10.3943 4.93604 4.76923 10.5612 4.76923 17.5001C4.76923 24.439 10.3943 30.0642 17.3333 30.0642Z" fill="black"/>
<path d="M17.3333 29.4001C23.9055 29.4001 29.2333 24.0723 29.2333 17.5001C29.2333 10.9279 23.9055 5.6001 17.3333 5.6001C10.7611 5.6001 5.43329 10.9279 5.43329 17.5001C5.43329 24.0723 10.7611 29.4001 17.3333 29.4001Z" fill="url(#paint1_linear_8879_953)"/>
<path d="M20.7598 25.1368C20.3946 25.1368 20.0426 25.0504 19.7106 24.8844L17.3333 23.7157L14.9559 24.8911C14.6239 25.0571 14.2719 25.1434 13.9067 25.1434C13.2227 25.1434 12.5653 24.8446 12.1137 24.3133C11.6622 23.7887 11.4696 23.118 11.5692 22.4274L11.9544 19.8043L10.095 17.9051C9.4774 17.2743 9.2649 16.3645 9.53717 15.5211C9.80944 14.6778 10.52 14.0668 11.3899 13.9208L14.0063 13.4758L15.2348 11.125C15.6465 10.3415 16.4434 9.85669 17.3266 9.85669C18.2098 9.85669 19.0133 10.3415 19.4184 11.125L20.6469 13.4758L23.2633 13.9208C24.1333 14.0668 24.8438 14.6844 25.1161 15.5211C25.3883 16.3579 25.1758 17.2743 24.5583 17.9051L22.7122 19.8043L23.0973 22.4274C23.1969 23.118 23.0044 23.7887 22.5528 24.3133C22.1012 24.8379 21.4438 25.1368 20.7598 25.1368Z" fill="black"/>
<path d="M18.8407 11.4373L20.2219 14.0803L23.1637 14.5783C24.5184 14.8107 25.0563 16.4643 24.0934 17.4404L22.0083 19.5721L22.4399 22.5205C22.6391 23.8752 21.2313 24.8979 20.0028 24.2936L17.3333 22.9721L14.6637 24.2936C13.4352 24.9045 12.0274 23.8818 12.2266 22.5205L12.6583 19.5721L10.5731 17.4404C9.61686 16.4576 10.1481 14.8041 11.5028 14.5783L14.4446 14.0803L15.8258 11.4373C16.4633 10.2221 18.2032 10.2221 18.8407 11.4373Z" fill="url(#paint2_linear_8879_953)"/>
</g>
<defs>
<linearGradient id="paint0_linear_8879_953" x1="17.3333" y1="33.8359" x2="17.3333" y2="1.16406" gradientUnits="userSpaceOnUse">
<stop stop-color="#FF9900"/>
<stop offset="0.11" stop-color="#FFA200"/>
<stop offset="0.37" stop-color="#FFB300"/>
<stop offset="0.65" stop-color="#FFBD00"/>
<stop offset="1" stop-color="#FFC100"/>
</linearGradient>
<linearGradient id="paint1_linear_8879_953" x1="17.3333" y1="29.4021" x2="17.3333" y2="5.59811" gradientUnits="userSpaceOnUse">
<stop stop-color="#FFE187"/>
<stop offset="1" stop-color="#FFF8E0"/>
</linearGradient>
<linearGradient id="paint2_linear_8879_953" x1="17.3332" y1="24.4756" x2="17.3332" y2="10.5246" gradientUnits="userSpaceOnUse">
<stop stop-color="#FD7600"/>
<stop offset="0.71" stop-color="#FDBF30"/>
</linearGradient>
<clipPath id="clip0_8879_953">
<rect width="34" height="34" fill="white" transform="translate(0.333313 0.5)"/>
</clipPath>
</defs>
</svg>
