<svg width="254" height="57" viewBox="0 0 254 57" fill="none" xmlns="http://www.w3.org/2000/svg">
<path d="M88.8309 38.1958H66.4729V33.9942L79.87 21.2721H66.561V16.336H88.7133V20.5375L74.758 33.2009H88.8309V38.1958Z" fill="white"/>
<path d="M105.495 38.519C94.7715 38.519 93.5376 31.7906 93.5376 27.4422V16.336H99.5898V27.2953C99.5898 29.7927 100.295 33.3772 105.848 33.3772H105.995C111.577 33.3772 112.194 29.7927 112.194 27.2953V16.336H118.217V27.4422C118.217 31.82 116.659 38.519 106.347 38.519H105.495Z" fill="white"/>
<path d="M129.518 21.1545V25.7968H137.95C140.418 25.7968 141.094 24.7391 141.094 23.4757V23.4169C141.094 22.1829 140.418 21.1545 137.95 21.1545H129.518ZM142.827 27.6772C145.794 28.353 147.587 30.1453 147.587 33.3478V35.6102C147.587 37.2556 147.763 37.6963 147.939 38.0489V38.1958H141.681C141.593 38.0489 141.476 37.6375 141.476 36.6679V34.8757C141.476 32.055 140.447 30.7623 137.392 30.7623H129.518V38.1958H123.466V16.336H138.185C146.5 16.336 147.44 19.803 147.44 22.1829V22.4767C147.44 25.2092 145.559 27.0602 142.827 27.6772Z" fill="white"/>
<path d="M163.7 38.5777H162.848C152.594 38.5777 151.419 33.9355 151.419 31.3205V30.9973H158C158.088 31.9669 158.5 34.1411 163.142 34.1411H163.347C167.901 34.1411 168.489 32.7602 168.489 31.5262C168.489 30.2334 167.637 29.3813 164.023 29.2638L161.114 29.1757C153.946 28.97 151.654 26.0906 151.654 22.7999V22.5355C151.654 19.1566 153.476 16.0715 162.525 16.0715H163.523C173.189 16.0715 174.512 19.5973 174.512 22.4767V22.7999H168.019C167.872 21.8303 167.313 20.3906 163.112 20.3906H162.818C158.94 20.3906 158.029 21.1252 158.029 22.3298C158.029 23.4463 158.823 24.269 162.26 24.4159L165.286 24.5334C173.072 24.8272 174.952 27.3834 174.952 30.9386V31.2911C174.952 34.4937 173.483 38.5777 163.7 38.5777Z" fill="white"/>
<path d="M179.471 16.336H185.523V33.054H198.891V38.1958H179.471V16.336Z" fill="white"/>
<path d="M214.3 15.9834H215.593C225.817 15.9834 228.726 22.0066 228.726 26.7664V27.6478C228.726 32.3489 225.817 38.5483 215.593 38.5483H214.3C204.076 38.5483 201.167 32.3489 201.167 27.6478V26.7664C201.167 22.0066 204.076 15.9834 214.3 15.9834ZM222.438 27.0014C222.438 24.2983 221.116 20.9782 214.946 20.9782C208.835 20.9782 207.455 24.2983 207.455 27.0014V27.4128C207.455 30.0571 208.924 33.5241 214.946 33.5241C221.087 33.5241 222.438 30.0571 222.438 27.4128V27.0014Z" fill="white"/>
<path d="M239.516 38.1958V21.3308H231.055V16.336H254V21.3308H245.539V38.1958H239.516Z" fill="white"/>
<g clip-path="url(#clip0_8879_562)">
<path d="M40.2984 0H16.6982C7.47605 0 0 7.47649 0 16.6992V40.3008C0 49.5235 7.47605 57 16.6982 57H40.2984C49.5206 57 56.9966 49.5235 56.9966 40.3008V16.6992C56.9966 7.47649 49.5206 0 40.2984 0Z" fill="url(#paint0_linear_8879_562)"/>
<path d="M34.9315 12.5568L23.4855 17.4173L14.0376 44.0738L26.9631 57.0001H40.3006C49.5225 57.0001 56.9988 49.5233 56.9988 40.3008V34.6242L34.9327 12.5568H34.9315Z" fill="url(#paint1_linear_8879_562)"/>
<path d="M37.4597 44.7727C34.7668 44.7727 33.3119 44.3396 33.0959 43.4724L31.5641 37.4829H24.1824L22.8365 43.2397C22.6506 44.2004 21.1656 44.6792 18.3792 44.6792C16.8942 44.6792 15.7943 44.5945 15.083 44.4231C14.3705 44.2539 14.0154 44.1214 14.0154 44.029L22.232 12.5977C22.232 12.3506 24.3516 12.2259 28.5929 12.2259C32.8343 12.2259 34.9527 12.3495 34.9527 12.5977L42.9846 44.0769C42.9846 44.294 42.2721 44.4643 40.8494 44.5879C39.4256 44.7103 38.2957 44.7727 37.4597 44.7727ZM25.3424 31.587H30.2171L28.1276 21.976H27.8493L25.3424 31.587Z" fill="white"/>
</g>
<defs>
<linearGradient id="paint0_linear_8879_562" x1="4.89036" y1="4.89064" x2="52.1091" y2="52.1066" gradientUnits="userSpaceOnUse">
<stop stop-color="#54BDFF"/>
<stop offset="1" stop-color="#0042C7"/>
</linearGradient>
<linearGradient id="paint1_linear_8879_562" x1="18.5361" y1="22.367" x2="50.1934" y2="54.0224" gradientUnits="userSpaceOnUse">
<stop stop-opacity="0.5"/>
<stop offset="1" stop-opacity="0"/>
</linearGradient>
<clipPath id="clip0_8879_562">
<rect width="56.9966" height="57" fill="white"/>
</clipPath>
</defs>
</svg>
