<svg width="42" height="42" viewBox="0 0 42 42" fill="none" xmlns="http://www.w3.org/2000/svg">
<rect width="42" height="42" rx="10" fill="#44B52D"/>
<path d="M33.8215 25.4211L21.752 12.3014C21.6659 12.2081 21.5529 12.1321 21.4222 12.0797C21.2915 12.0273 21.1468 12 21 12C20.8532 12 20.7085 12.0273 20.5778 12.0797C20.4471 12.1321 20.3341 12.2081 20.248 12.3014L8.17853 25.4211C8.0767 25.5306 8.0158 25.6603 8.00268 25.7955C7.98956 25.9307 8.02474 26.066 8.10426 26.1864C8.18268 26.3052 8.30127 26.4048 8.44702 26.4743C8.59278 26.5437 8.76007 26.5803 8.93055 26.58H33.0694C33.2399 26.5803 33.4072 26.5437 33.553 26.4743C33.6987 26.4048 33.8173 26.3052 33.8957 26.1864C33.9753 26.066 34.0104 25.9307 33.9973 25.7955C33.9842 25.6603 33.9233 25.5306 33.8215 25.4211Z" fill="white"/>
</svg>
